<svg width="400" height="300" viewBox="0 0 400 300" fill="none" xmlns="http://www.w3.org/2000/svg">
<g opacity="0.4">
<path opacity="0.4" d="M8.05967 171.349C15.9597 152.112 46.8413 146.264 59.9227 143.802C131.792 130.207 171.804 176.325 209.047 156.421C230.028 145.238 219.717 129.387 252.548 101.891C257.421 97.787 275.376 83.116 318.467 74.908C352.837 68.393 385.001 62.2375 393.362 75.6775C402.442 90.2975 370.945 108.2 368.021 152.42C365.918 184.276 380.281 205.821 371.099 212.285C360.275 219.877 335.241 193.766 322.776 202.641C315.799 207.617 322.263 218.441 316.569 227.008C301.179 250.041 251.779 234.754 167.444 238.037C97.4727 240.756 79.8777 253.272 50.3297 238.037C22.9363 223.981 -0.86627 193.151 8.05967 171.349Z" fill="#175251"/>
</g>
<path d="M81.0764 169.134H13.9778V175.905H81.0764V169.134Z" fill="#9F8AFF"/>
<path d="M56.9142 162.312H5.87231V169.083H56.9142V162.312Z" fill="#9F8AFF"/>
<path d="M31.3677 175.906H5.87231V182.677H31.3677V175.906Z" fill="#9F8AFF"/>
<path d="M54.195 168.878H5V169.391H54.195V168.878Z" fill="#3913B8"/>
<path d="M33.1116 175.649H18.5942V176.162H33.1116V175.649Z" fill="#3913B8"/>
<path d="M14.2337 169.134H13.7207V175.905H14.2337V169.134Z" fill="#3913B8"/>
<path d="M31.6238 162.312H31.1108V169.083H31.6238V162.312Z" fill="#3913B8"/>
<path d="M47.782 169.134H47.269V175.905H47.782V169.134Z" fill="#3913B8"/>
<path d="M19.5175 182.421H5V182.934H19.5175V182.421Z" fill="#3913B8"/>
<g opacity="0.4">
<path opacity="0.4" d="M131.434 289.532C185.801 289.532 229.875 286.363 229.875 282.453C229.875 278.543 185.801 275.374 131.434 275.374C77.0655 275.374 32.9917 278.543 32.9917 282.453C32.9917 286.363 77.0655 289.532 131.434 289.532Z" fill="#B5CDFB"/>
</g>
<g opacity="0.4">
<path opacity="0.4" d="M360.788 288.095L360.48 287.121C363.763 286.095 367.405 286.3 370.945 286.557C374.125 286.762 377.152 286.916 379.922 286.3L380.178 287.275C377.254 287.942 374.023 287.788 370.893 287.583C367.456 287.377 363.917 287.172 360.788 288.095Z" fill="#3913B8"/>
</g>
<g opacity="0.4">
<path opacity="0.4" d="M386.9 290.558H368.381V291.584H386.9V290.558Z" fill="#3913B8"/>
</g>
<g opacity="0.4">
<path opacity="0.4" d="M294.769 287.275C280.2 287.275 276.763 285.582 275.481 284.915C272.198 283.325 271.941 282.452 271.839 282.145C271.736 281.888 271.787 281.58 271.89 281.375C272.352 280.554 273.634 280.503 277.533 280.503C278.61 280.503 279.944 280.452 281.432 280.452C283.74 280.401 286.1 280.349 288.408 280.349C290.306 280.349 292.204 280.298 294.102 280.247H294.205C297.18 280.195 299.694 280.144 300.874 281.375C301.233 281.734 301.694 282.555 301.284 283.325C300.515 284.658 297.488 284.71 294.307 284.607C291.435 284.504 286.818 283.838 286.254 283.068C286.151 282.914 286.1 282.76 286.151 282.555C286.254 281.991 286.356 281.529 296.872 281.888L296.821 282.914C292.153 282.76 289.691 282.76 288.408 282.863C289.793 283.171 292.05 283.53 294.41 283.632C298.976 283.786 300.207 283.325 300.463 282.863C300.617 282.606 300.207 282.145 300.207 282.145C299.335 281.221 296.77 281.273 294.256 281.324H294.154C292.256 281.375 290.357 281.375 288.459 281.427C286.151 281.478 283.791 281.478 281.483 281.529C279.944 281.58 278.661 281.58 277.584 281.58C275.071 281.632 273.07 281.632 272.865 281.94C272.865 282.093 273.48 282.863 275.994 284.094C277.43 284.812 281.791 286.967 303.644 286.146C305.644 286.095 310.313 285.89 315.494 284.248C318.828 283.171 320.572 282.401 320.572 281.94C320.47 281.734 319.444 280.657 306.978 279.58C298.411 278.862 289.485 278.605 280.508 278.759V277.733C289.537 277.528 298.463 277.836 307.081 278.554C321.29 279.734 321.496 281.016 321.598 281.786C321.803 283.171 319.187 284.145 315.802 285.223C310.518 286.915 305.747 287.069 303.695 287.172C300.309 287.223 297.334 287.275 294.769 287.275Z" fill="#3913B8"/>
</g>
<g opacity="0.4">
<path opacity="0.4" d="M195.345 269.967C180.776 269.967 177.339 268.274 176.057 267.607C172.774 266.017 172.517 265.145 172.415 264.837C172.312 264.581 172.364 264.273 172.466 264.068C172.928 263.247 174.21 263.196 178.109 263.196C179.186 263.196 180.52 263.144 182.008 263.144C184.316 263.093 186.676 263.042 188.984 263.042C190.882 263.042 192.78 262.99 194.678 262.939H194.781C197.756 262.888 200.27 262.836 201.45 264.068C201.911 264.529 202.27 265.299 201.86 266.017C201.091 267.351 198.064 267.402 194.884 267.299C192.011 267.197 187.394 266.53 186.83 265.76C186.727 265.607 186.676 265.453 186.727 265.248C186.83 264.683 186.932 264.222 197.448 264.581L197.397 265.607C192.729 265.453 190.267 265.453 188.984 265.555C190.369 265.863 192.626 266.222 194.986 266.325C199.552 266.479 200.783 266.017 201.039 265.555C201.193 265.299 200.783 264.837 200.783 264.837C199.911 263.914 197.346 263.965 194.832 264.016H194.73C192.832 264.068 190.934 264.068 189.035 264.119C186.727 264.17 184.367 264.17 182.059 264.222C180.52 264.273 179.237 264.273 178.109 264.273C175.595 264.324 173.595 264.324 173.389 264.632C173.389 264.786 174.005 265.555 176.519 266.786C177.955 267.505 182.367 269.659 204.169 268.838C206.323 268.736 210.837 268.582 216.018 266.94C219.353 265.863 221.097 265.094 221.097 264.632C220.994 264.427 219.968 263.349 207.503 262.272C198.936 261.554 190.01 261.298 181.033 261.451V260.425C190.061 260.22 198.987 260.528 207.606 261.246C221.815 262.426 222.02 263.709 222.123 264.478C222.328 265.863 219.712 266.838 216.326 267.915C211.043 269.608 206.272 269.762 204.22 269.864C200.885 269.916 197.91 269.967 195.345 269.967Z" fill="#3913B8"/>
</g>
<path d="M337.911 177.292H271.172V181.857H337.911V177.292Z" fill="#9F8AFF"/>
<path d="M321.7 172.726H287.433V177.291H321.7V172.726Z" fill="#9F8AFF"/>
<path d="M295.179 177.035H285.433V177.548H295.179V177.035Z" fill="#3913B8"/>
<path d="M293.128 177.292H292.615V181.857H293.128V177.292Z" fill="#3913B8"/>
<path d="M304.824 172.726H304.311V177.291H304.824V172.726Z" fill="#3913B8"/>
<path d="M315.647 177.292H315.134V181.857H315.647V177.292Z" fill="#3913B8"/>
<path d="M315.75 177.035H311.184V177.548H315.75V177.035Z" fill="#3913B8"/>
<g opacity="0.8">
<path opacity="0.8" d="M76.1845 47.4033H9.44507V51.969H76.1845V47.4033Z" fill="#B5CDFB"/>
<path opacity="0.8" d="M59.9752 42.8379H25.708V47.4034H59.9752V42.8379Z" fill="#B5CDFB"/>
</g>
<g opacity="0.46">
<g opacity="0.46">
<path opacity="0.5" d="M372.433 85.2615H249.83C249.83 71.9755 255.216 61.818 263.886 54.9955C272.555 48.1215 284.559 44.6332 297.845 44.6332H305.181L304.206 8.5191L309.336 8.4165L310.311 44.5819H324.418C350.939 44.5819 372.433 58.7405 372.433 85.2615Z" fill="#B5CDFB"/>
</g>
</g>
<path d="M182.835 101.369C186.829 101.369 190.068 98.1308 190.068 94.1363C190.068 90.1413 186.829 86.9033 182.835 86.9033C178.84 86.9033 175.602 90.1413 175.602 94.1363C175.602 98.1308 178.84 101.369 182.835 101.369Z" fill="#B5CDFB"/>
<path d="M137.385 111.834C140.501 111.834 143.028 109.307 143.028 106.191C143.028 103.074 140.501 100.548 137.385 100.548C134.268 100.548 131.742 103.074 131.742 106.191C131.742 109.307 134.268 111.834 137.385 111.834Z" fill="#9F8AFF"/>
<path d="M137.384 110.654C134.152 110.654 131.484 107.986 131.484 104.755C131.484 101.523 134.152 98.8555 137.384 98.8555C140.616 98.8555 143.283 101.523 143.283 104.755C143.283 107.986 140.667 110.654 137.384 110.654ZM137.384 99.4195C134.409 99.4195 131.997 101.831 131.997 104.806C131.997 107.781 134.409 110.192 137.384 110.192C140.359 110.192 142.77 107.781 142.77 104.806C142.77 101.831 140.359 99.4195 137.384 99.4195Z" fill="#3913B8"/>
<path d="M135.128 103.165C135.384 104.55 135.743 105.935 135.949 107.32C136 107.525 136.256 107.679 136.41 107.525C137.026 107.115 137.59 106.243 138.103 105.883C138.873 105.268 139.591 104.601 140.36 103.934C140.566 103.729 140.463 103.421 140.155 103.421C139.283 103.37 138.411 103.165 137.59 103.062C137.129 102.959 136.154 102.959 135.538 102.806C135.282 102.754 135.077 102.959 135.128 103.165Z" fill="#3913B8"/>
<path d="M152.468 73.4631L152.006 73.0011C150.467 71.5136 147.748 69.2051 146.928 69.2051C146.928 69.2051 146.928 69.2051 146.876 69.2051L130.358 70.5391C128.819 70.6416 127.28 70.1286 126.152 69.1026C125.023 68.0251 124.356 66.5376 124.408 64.9986L124.459 57.4576C124.459 55.9186 125.126 54.4311 126.306 53.4051C127.434 52.3791 129.025 51.8661 130.563 52.0201L147.03 53.6616C149.903 53.9181 152.058 56.3291 152.006 59.2021L151.955 63.8186C151.955 65.3066 152.417 72.7961 152.417 72.8986L152.468 73.4631ZM146.928 68.6406C148.056 68.6406 150.724 71.0006 151.904 72.1291C151.801 70.2311 151.442 64.9471 151.493 63.6651L151.545 59.0481C151.545 56.4316 149.595 54.2771 147.03 54.0206L130.563 52.3791C129.178 52.2251 127.742 52.6871 126.716 53.6616C125.69 54.5851 125.075 55.9701 125.075 57.3551L125.023 64.8961C125.023 66.2811 125.588 67.6661 126.614 68.5896C127.639 69.5641 129.025 70.0261 130.461 69.9231L146.979 68.5896C146.876 68.6406 146.876 68.6406 146.928 68.6406Z" fill="#3913B8"/>
<path d="M128.767 64.1259H134.513C134.923 64.1259 135.231 63.6644 135.026 63.3054C134.615 62.4334 133.641 61.1509 131.794 61.1509C129.434 61.1509 128.357 62.3819 128.203 63.5104C128.152 63.8694 128.408 64.1259 128.767 64.1259Z" fill="#3913B8"/>
<path d="M131.64 61.2026C132.405 61.2026 133.025 60.5826 133.025 59.8176C133.025 59.0526 132.405 58.4326 131.64 58.4326C130.875 58.4326 130.255 59.0526 130.255 59.8176C130.255 60.5826 130.875 61.2026 131.64 61.2026Z" fill="#3913B8"/>
<path d="M146.259 59.1507H138.667C138.513 59.1507 138.411 59.0482 138.411 58.8942C138.411 58.7407 138.513 58.6377 138.667 58.6377H146.259C146.413 58.6377 146.516 58.7407 146.516 58.8942C146.516 59.0482 146.413 59.1507 146.259 59.1507Z" fill="#3913B8"/>
<path d="M146.259 61.3558H138.667C138.513 61.3558 138.411 61.2533 138.411 61.0998C138.411 60.9458 138.513 60.8433 138.667 60.8433H146.259C146.413 60.8433 146.516 60.9458 146.516 61.0998C146.516 61.2533 146.413 61.3558 146.259 61.3558Z" fill="#3913B8"/>
<path d="M146.259 63.5623H138.667C138.513 63.5623 138.411 63.4593 138.411 63.3058C138.411 63.1518 138.513 63.0493 138.667 63.0493H146.259C146.413 63.0493 146.516 63.1518 146.516 63.3058C146.516 63.4593 146.413 63.5623 146.259 63.5623Z" fill="#3913B8"/>
<path d="M220.54 44.0178C220.334 44.0178 220.129 43.9665 219.975 43.8126C219.668 43.5561 219.616 43.1971 219.77 42.838C221.617 38.6315 222.643 35.7588 222.643 35.0406L222.592 30.4237C222.592 27.551 224.695 25.14 227.568 24.8835C227.721 24.8835 239.879 24.2166 245.727 24.7296C248.036 24.9348 249.113 27.4997 248.805 31.7062C248.395 36.3744 246.343 41.812 244.342 41.8633C244.291 41.8633 244.291 41.8633 244.24 41.8633L227.721 40.5295C227.516 40.5295 226.439 40.7347 221.001 43.9665C220.847 44.0178 220.694 44.0178 220.54 44.0178ZM239.93 25.0374C234.185 25.0374 227.721 25.3965 227.67 25.3965C225.105 25.653 223.156 27.8075 223.156 30.4237L223.207 35.0406C223.207 36.1179 221.617 40.0166 220.283 43.0432C220.232 43.1971 220.283 43.3509 220.386 43.4535C220.488 43.5561 220.642 43.6074 220.796 43.5048C224.797 41.1451 227.157 39.9652 227.824 40.0165L244.342 41.3503H244.393C245.932 41.3503 247.984 36.3744 248.343 31.7062C248.497 29.8595 248.549 25.4991 245.779 25.2426C244.086 25.0887 242.034 25.0374 239.93 25.0374Z" fill="#3913B8"/>
<path d="M240.699 37.1441C242.909 37.1441 244.701 35.3527 244.701 33.1429C244.701 30.933 242.909 29.1416 240.699 29.1416C238.489 29.1416 236.698 30.933 236.698 33.1429C236.698 35.3527 238.489 37.1441 240.699 37.1441Z" fill="#9F8AFF"/>
<path d="M210.175 125.633C211.166 125.633 211.97 124.829 211.97 123.838C211.97 122.846 211.166 122.042 210.175 122.042C209.183 122.042 208.379 122.846 208.379 123.838C208.379 124.829 209.183 125.633 210.175 125.633Z" fill="#3913B8"/>
<path d="M210.177 129.02C207.304 129.02 204.996 126.711 204.996 123.839C204.996 120.966 207.304 118.657 210.177 118.657C213.05 118.657 215.358 120.966 215.358 123.839C215.358 126.711 213.05 129.02 210.177 129.02ZM210.177 119.222C207.612 119.222 205.509 121.325 205.509 123.89C205.509 126.455 207.612 128.558 210.177 128.558C212.742 128.558 214.845 126.455 214.845 123.89C214.845 121.325 212.742 119.222 210.177 119.222Z" fill="#3913B8"/>
<path d="M235.159 31.8602H227.567C227.413 31.8602 227.311 31.7576 227.311 31.6037C227.311 31.4498 227.413 31.3472 227.567 31.3472H235.159C235.313 31.3472 235.416 31.4498 235.416 31.6037C235.416 31.7576 235.313 31.8602 235.159 31.8602Z" fill="#3913B8"/>
<path d="M235.159 34.0657H227.567C227.413 34.0657 227.311 33.9631 227.311 33.8092C227.311 33.6553 227.413 33.5527 227.567 33.5527H235.159C235.313 33.5527 235.416 33.6553 235.416 33.8092C235.416 33.9631 235.313 34.0657 235.159 34.0657Z" fill="#3913B8"/>
<path d="M195.762 55.6625H168.676V25.2939H195.762V55.6625ZM169.189 55.1495H195.249V25.8069H169.189V55.1495Z" fill="#3913B8"/>
<path d="M199.198 24.0625H165.188V28.628H199.198V24.0625Z" fill="#3913B8"/>
<path d="M167.343 26.9861C167.712 26.9861 168.01 26.6875 168.01 26.3192C168.01 25.9509 167.712 25.6523 167.343 25.6523C166.975 25.6523 166.677 25.9509 166.677 26.3192C166.677 26.6875 166.975 26.9861 167.343 26.9861Z" fill="#AFE3E2"/>
<path d="M170.471 26.9861C170.839 26.9861 171.138 26.6875 171.138 26.3192C171.138 25.9509 170.839 25.6523 170.471 25.6523C170.103 25.6523 169.804 25.9509 169.804 26.3192C169.804 26.6875 170.103 26.9861 170.471 26.9861Z" fill="#F6A7AB"/>
<g opacity="0.9">
<path opacity="0.9" d="M199.609 40.888H175.191C174.575 40.888 174.062 40.3751 174.062 39.7595V33.5524C174.062 32.9368 174.575 32.4238 175.191 32.4238H199.609C200.224 32.4238 200.738 32.9368 200.738 33.5524V39.7595C200.738 40.3751 200.224 40.888 199.609 40.888Z" fill="#B5CDFB"/>
</g>
<g opacity="0.9">
<path opacity="0.9" d="M199.609 51.661H175.191C174.575 51.661 174.062 51.148 174.062 50.5325V44.3253C174.062 43.7097 174.575 43.1968 175.191 43.1968H199.609C200.224 43.1968 200.738 43.7097 200.738 44.3253V50.5325C200.738 51.148 200.224 51.661 199.609 51.661Z" fill="#9F8AFF"/>
</g>
<path d="M157.032 88.8522C155.082 88.8522 153.544 88.1342 152.877 87.7237C151.235 86.8007 150.004 85.3127 149.286 83.9277C148.619 83.8767 147.952 83.7737 147.439 83.6202C143.643 82.5427 141.847 78.2852 141.283 76.5407L141.796 76.3867C142.36 78.0797 144.002 82.1837 147.593 83.1582C147.952 83.2607 148.465 83.3637 149.029 83.4147C148.773 82.9017 148.619 82.3887 148.516 81.9272C148.311 81.0037 148.414 80.2857 148.773 79.8237C149.286 79.1572 150.363 78.9007 151.081 79.2597C151.543 79.5162 151.902 80.0292 152.107 80.6962C152.312 81.5682 152.158 82.4402 151.697 83.0042C151.235 83.5687 150.568 83.8252 149.799 83.8767C150.517 85.1592 151.645 86.4412 153.082 87.2107C153.903 87.6727 156.16 88.7497 158.827 88.0317C161.597 87.2622 163.803 84.9537 164.521 81.8757L165.034 81.9782C164.265 85.2102 161.956 87.7237 158.981 88.4932C158.314 88.7497 157.647 88.8522 157.032 88.8522ZM150.312 79.6187C149.901 79.6187 149.44 79.7727 149.183 80.1317C148.927 80.4907 148.875 81.1062 149.029 81.8247C149.132 82.3377 149.337 82.8507 149.594 83.4147C150.26 83.4147 150.927 83.2607 151.338 82.7477C151.697 82.2862 151.799 81.5682 151.645 80.8497C151.543 80.3367 151.235 79.9267 150.927 79.7212C150.722 79.6702 150.517 79.6187 150.312 79.6187Z" fill="#3913B8"/>
<path d="M204.277 68.2305L203.969 67.8205C207.149 65.512 212.331 61.4595 214.485 57.971C213.562 57.817 212.689 57.4065 212.228 56.637C211.766 55.765 211.817 54.329 212.741 53.5595C213.613 52.79 215.05 52.7385 215.716 53.4055C216.486 54.175 216.024 55.6625 215.768 56.432C215.665 56.791 215.511 57.2015 215.306 57.5605C216.126 57.612 216.896 57.5605 217.409 57.5605C222.026 57.304 227.669 54.6365 230.182 51.5075C231.208 50.276 231.618 48.9937 231.465 47.9165C231.311 46.8392 230.49 45.8132 229.105 44.8899L229.413 44.4795C230.952 45.5054 231.824 46.634 232.029 47.8652C232.235 49.0963 231.721 50.4815 230.644 51.8665C227.976 55.1495 222.333 57.8685 217.46 58.125C216.896 58.176 215.972 58.2275 215.049 58.125C212.843 61.6645 207.509 65.871 204.277 68.2305ZM214.383 53.4055C213.921 53.4055 213.408 53.5595 213.048 53.867C212.33 54.4825 212.279 55.6115 212.689 56.3295C213.048 56.9965 213.87 57.304 214.742 57.458C214.947 57.0475 215.152 56.637 215.255 56.227C215.46 55.56 215.87 54.2775 215.306 53.713C215.1 53.508 214.742 53.4055 214.383 53.4055Z" fill="#3913B8"/>
<path d="M230.953 79.7725C229.927 79.7725 228.952 79.5675 228.08 79.157C227.157 78.7465 226.233 78.0285 225.464 77.259C222.95 78.5415 219 79.2595 216.23 79.6185L216.179 79.1055C220.18 78.5415 223.207 77.772 225.105 76.8485C224.028 75.566 223.412 74.1295 223.874 73.104C224.284 72.1805 225.618 71.616 226.541 71.924C227.567 72.3345 227.978 73.822 227.875 74.694C227.772 75.566 227.054 76.3355 225.926 76.951C226.593 77.6695 227.413 78.285 228.285 78.644C231.209 79.9775 235.211 78.849 238.699 75.7715L239.058 76.1305C236.442 78.5415 233.518 79.7725 230.953 79.7725ZM225.926 72.3855C225.31 72.3855 224.541 72.796 224.335 73.36C223.976 74.1295 224.541 75.4635 225.567 76.6435C226.644 76.028 227.259 75.361 227.311 74.694C227.413 73.976 227.054 72.7445 226.285 72.488C226.233 72.437 226.08 72.3855 225.926 72.3855Z" fill="#3913B8"/>
<path d="M136.973 39.1959L136.614 38.8368C139.025 36.4257 141.744 34.5277 144.77 33.0913C146.463 32.3219 148.259 31.655 150.054 31.2446L150.156 31.7576C148.361 32.168 146.617 32.7836 144.976 33.6043C142 34.9894 139.333 36.8361 136.973 39.1959Z" fill="#3913B8"/>
<path d="M136.152 42.9918L135.793 42.6327C138.204 40.2216 140.923 38.3236 143.949 36.8872C145.642 36.1178 147.437 35.4509 149.233 35.0405L149.336 35.5535C147.54 35.9639 145.796 36.5795 144.154 37.4002C141.179 38.734 138.512 40.632 136.152 42.9918Z" fill="#3913B8"/>
<g opacity="0.4">
<path opacity="0.4" d="M227.978 280.298C227.568 280.298 227.26 280.093 227.26 279.785L225.926 179.343H230.081L228.748 279.785C228.748 280.093 228.388 280.298 227.978 280.298Z" fill="#3913B8"/>
</g>
<g opacity="0.4">
<path opacity="0.4" d="M198.173 280.298C197.763 280.298 197.455 280.093 197.455 279.785L196.121 179.343H200.276L198.942 279.785C198.891 280.093 198.583 280.298 198.173 280.298Z" fill="#3913B8"/>
</g>
<path d="M214.691 140.304L175.038 160.208L174.833 159.798C174.268 158.669 174.73 157.284 175.858 156.72L211.408 138.868C212.537 138.304 213.922 138.765 214.486 139.894L214.691 140.304Z" fill="#3913B8"/>
<path d="M175.088 160.209L178.423 163.594L218.076 143.639L214.691 140.305L209.304 141.485L176.371 158.311L175.088 160.209Z" fill="#3913B8"/>
<path d="M214.487 140.766L232.699 90.8528C231.262 90.3398 229.723 91.0578 229.21 92.4943L212.846 137.278C212.333 138.714 213.102 140.253 214.487 140.766Z" fill="#3913B8"/>
<path d="M232.698 90.853L238.649 91.6225L217.257 143.537L214.487 140.767L215.051 135.278L231.005 92.392L232.698 90.853Z" fill="#3913B8"/>
<path fill-rule="evenodd" clip-rule="evenodd" d="M211.407 138.868C211.829 138.657 212.286 138.589 212.722 138.646C212.647 138.204 212.68 137.735 212.844 137.278L229.208 92.4943C229.721 91.0578 231.26 90.3398 232.696 90.8528L238.647 91.6223L217.462 143.034L218.076 143.638L178.422 163.593L175.088 160.208L175.114 160.169L175.037 160.208L174.832 159.797C174.267 158.669 174.729 157.284 175.858 156.719L211.407 138.868Z" fill="white" fill-opacity="0.57"/>
<path d="M224.386 173.393H179.5C176.987 173.393 174.883 171.341 174.883 168.776C174.883 166.211 176.935 164.159 179.5 164.159C179.808 164.159 180.013 164.364 180.013 164.672C180.013 164.98 179.808 165.185 179.5 165.185C177.551 165.185 175.909 166.775 175.909 168.776C175.909 170.725 177.5 172.367 179.5 172.367H224.386C224.694 172.367 224.899 172.572 224.899 172.88C224.899 173.187 224.643 173.393 224.386 173.393Z" fill="#9F8AFF"/>
<path d="M158.57 173.187H156.877V168.724L158.57 168.314V173.187Z" fill="#9F8AFF"/>
<path d="M226.438 280.554C225.874 280.554 225.464 280.247 225.464 279.785L224.079 179.086H228.798L227.413 279.785C227.464 280.247 227.003 280.554 226.438 280.554ZM224.643 179.65L225.977 279.785C225.977 279.888 226.182 280.041 226.438 280.041C226.695 280.041 226.9 279.888 226.9 279.785L228.234 179.65H224.643Z" fill="#3913B8"/>
<path d="M196.633 280.554C196.068 280.554 195.658 280.247 195.658 279.785L194.273 179.086H198.992L197.607 279.785C197.607 280.247 197.146 280.554 196.633 280.554ZM194.786 179.65L196.12 279.785C196.12 279.888 196.325 280.041 196.581 280.041C196.838 280.041 197.043 279.888 197.043 279.785L198.377 179.65H194.786Z" fill="#3913B8"/>
<path d="M233.004 180.215H126.458C125.175 180.215 124.2 179.189 124.2 177.958V177.086C124.2 175.804 125.226 174.829 126.458 174.829H232.953C234.236 174.829 235.21 175.855 235.21 177.086V177.958C235.262 179.241 234.236 180.215 233.004 180.215Z" fill="#3913B8"/>
<path d="M218.075 143.638L178.421 163.542L178.216 163.132C177.652 162.003 178.114 160.618 179.242 160.054L214.792 142.202C215.921 141.638 217.306 142.099 217.87 143.228L218.075 143.638Z" fill="#3913B8"/>
<path d="M218.077 143.639L239.058 91.828C237.673 91.264 236.083 91.9305 235.519 93.3155L216.589 140.1C216.025 141.536 216.692 143.075 218.077 143.639Z" fill="#3913B8"/>
<path d="M163.034 173.444H160.777V168.108L163.034 167.493V173.444ZM161.341 172.931H162.573V168.16L161.341 168.468V172.931Z" fill="#3913B8"/>
<path d="M201.712 173.136H199.814L195.762 156.515L198.019 155.335L201.712 173.136ZM200.225 172.623H201.097L197.66 156.105L196.377 156.772L200.225 172.623Z" fill="#9F8AFF"/>
<path d="M220.488 143.588L178.782 163.954C178.269 164.21 177.654 164.108 177.295 163.697L171.652 157.644C171.241 157.285 170.677 157.798 170.985 158.209L176.269 165.801C176.628 166.314 177.346 166.519 177.91 166.211L221.155 144.82C221.411 144.717 221.565 144.461 221.565 144.204C221.514 143.691 220.95 143.383 220.488 143.588Z" fill="#9F8AFF"/>
<path d="M189.092 151.488C188.938 151.232 188.887 150.975 189.451 150.616C189.964 150.309 190.22 150.462 190.374 150.719" fill="#3913B8"/>
<path d="M179.908 155.387L185.961 152.155L188.526 154.361L182.216 157.695L179.908 155.387Z" fill="#3913B8"/>
<path d="M189.758 152.155C189.604 151.898 189.553 151.642 190.117 151.283C190.63 150.975 190.887 151.129 191.041 151.385" fill="#3913B8"/>
<path d="M190.425 152.771C190.271 152.514 190.22 152.258 190.784 151.899C191.297 151.591 191.554 151.745 191.707 152.001" fill="#3913B8"/>
<path d="M191.092 153.438C190.938 153.181 190.886 152.925 191.451 152.566C191.964 152.258 192.22 152.412 192.374 152.668" fill="#3913B8"/>
<path d="M191.862 150.102C191.708 149.846 191.657 149.589 192.221 149.23C192.734 148.922 192.991 149.076 193.144 149.333" fill="#3913B8"/>
<path d="M192.528 150.769C192.374 150.513 192.323 150.256 192.887 149.897C193.4 149.589 193.657 149.743 193.811 150" fill="#3913B8"/>
<path d="M193.195 151.385C193.041 151.128 192.99 150.872 193.554 150.513C194.067 150.205 194.324 150.359 194.478 150.615" fill="#3913B8"/>
<path d="M193.861 152.051C193.707 151.795 193.656 151.538 194.22 151.179C194.733 150.872 194.989 151.025 195.143 151.282" fill="#3913B8"/>
<path d="M194.682 148.717C194.528 148.461 194.477 148.204 195.041 147.845C195.554 147.538 195.81 147.691 195.964 147.948" fill="#3913B8"/>
<path d="M195.35 149.384C195.196 149.128 195.145 148.871 195.709 148.512C196.222 148.205 196.478 148.358 196.632 148.615" fill="#3913B8"/>
<path d="M195.965 150C195.811 149.744 195.76 149.487 196.324 149.128C196.837 148.82 197.093 148.974 197.247 149.231" fill="#3913B8"/>
<path d="M196.631 150.667C196.477 150.41 196.426 150.154 196.99 149.795C197.503 149.487 197.76 149.641 197.914 149.897" fill="#3913B8"/>
<path d="M197.454 147.333C197.3 147.077 197.248 146.82 197.813 146.461C198.326 146.153 198.582 146.307 198.736 146.564" fill="#3913B8"/>
<path d="M198.121 148C197.967 147.743 197.916 147.487 198.48 147.128C198.993 146.82 199.25 146.974 199.404 147.23" fill="#3913B8"/>
<path d="M198.788 148.616C198.634 148.36 198.582 148.103 199.147 147.744C199.66 147.436 199.916 147.59 200.07 147.847" fill="#3913B8"/>
<path d="M199.452 149.283C199.298 149.026 199.247 148.77 199.811 148.411C200.324 148.103 200.58 148.257 200.734 148.513" fill="#3913B8"/>
<path d="M200.221 145.948C200.067 145.692 200.016 145.435 200.58 145.076C201.093 144.768 201.35 144.922 201.503 145.179" fill="#3913B8"/>
<path d="M200.89 146.614C200.736 146.358 200.685 146.101 201.249 145.742C201.762 145.435 202.019 145.588 202.173 145.845" fill="#3913B8"/>
<path d="M201.556 147.23C201.402 146.974 201.351 146.717 201.915 146.358C202.428 146.05 202.685 146.204 202.839 146.461" fill="#3913B8"/>
<path d="M202.221 147.897C202.067 147.641 202.015 147.384 202.58 147.025C203.093 146.717 203.349 146.871 203.503 147.128" fill="#3913B8"/>
<path d="M203.044 144.563C202.89 144.306 202.839 144.05 203.403 143.691C203.916 143.383 204.173 143.537 204.327 143.793" fill="#3913B8"/>
<path d="M203.659 145.23C203.505 144.973 203.454 144.717 204.018 144.358C204.531 144.05 204.788 144.204 204.942 144.46" fill="#3913B8"/>
<path d="M204.327 145.846C204.173 145.589 204.122 145.333 204.686 144.974C205.199 144.666 205.456 144.82 205.61 145.076" fill="#3913B8"/>
<path d="M204.995 146.513C204.841 146.256 204.79 146 205.354 145.641C205.867 145.333 206.123 145.487 206.277 145.743" fill="#3913B8"/>
<path d="M165.7 168.057L131.074 173.443L130.92 172.315C130.715 171.083 131.587 169.904 132.818 169.698L162.93 165.03C164.161 164.825 165.341 165.697 165.547 166.928L165.7 168.057Z" fill="#3913B8"/>
<path d="M114.094 231.513L58.5891 223.459C57.1531 223.459 55.9731 222.382 55.9731 221.099V209.557C55.9731 206.171 58.9996 203.401 62.7446 203.401H112.35C119.685 203.401 125.585 208.787 125.585 215.405V221.099C125.533 222.382 115.53 231.513 114.094 231.513Z" fill="#0E7B73"/>
<path d="M65.4125 119.17L75.621 213.816L51.6645 215.662L49.6128 140.715L41.8667 124.454L56.4355 116.913L65.4125 119.17Z" fill="#0E7B73"/>
<path d="M28.272 100.908C28.272 100.908 44.2771 91.5716 51.4077 93.8796C58.5382 96.1881 61.6162 98.4456 63.2577 105.525L65.4122 119.17L47.2524 125.377L30.0675 104.55L28.272 100.908Z" fill="#9F8AFF"/>
<path d="M47.919 215.559C49.8684 198.066 48.9963 180.471 45.4567 163.286C41.7119 145.177 34.9918 127.582 25.399 111.269C22.988 107.165 25.399 101.882 30.1185 101.061C30.1698 101.061 30.2211 101.061 30.2724 101.01C33.1451 100.497 35.9665 101.882 37.4028 104.395C47.2521 122.093 53.7669 141.433 56.6909 161.336C59.2049 178.47 59.1019 196.117 56.2809 213.558C55.5114 218.38 47.406 220.124 47.919 215.559Z" fill="#B5CDFB"/>
<path d="M47.2531 125.376L35.4544 131.173C32.5817 124.35 29.2473 117.682 25.4512 111.218C23.0402 107.114 25.4512 101.83 30.1707 101.01C30.222 101.01 30.2733 101.01 30.3246 101.01C33.146 100.497 36.0187 101.882 37.4551 104.395C41.1999 111.167 44.483 118.143 47.2531 125.376Z" fill="#9F8AFF"/>
<path d="M114.299 231.514H49.4574C48.1236 231.514 47.0977 230.436 47.0977 229.154V217.612C47.0977 214.226 49.8678 211.456 53.2533 211.456H104.655C111.272 211.456 116.659 216.842 116.659 223.46V229.154C116.71 230.436 115.633 231.514 114.299 231.514Z" fill="#B5CDFB"/>
<path opacity="0.4" d="M56.6074 211.455H104.656C111.273 211.455 116.66 216.842 116.66 223.459V229.153C116.711 230.436 115.634 231.513 114.3 231.513H49.4584C48.1246 231.513 47.0986 230.436 47.0986 229.153V217.611C47.0986 216.408 47.4483 215.283 48.0511 214.332C49.8261 197.244 48.9135 180.069 45.4567 163.286C41.7119 145.177 34.9918 127.582 25.399 111.269C22.988 107.165 25.399 101.882 30.1185 101.061C30.1698 101.061 30.2211 101.061 30.2724 101.01C33.1451 100.497 35.9665 101.882 37.4028 104.395C47.2521 122.093 53.7669 141.433 56.6909 161.336C59.1039 177.782 59.1059 194.7 56.6074 211.455Z" fill="#75C3C0"/>
<path d="M55.1975 281.94C55.095 281.94 54.9925 281.837 54.941 281.735C54.89 281.581 54.9925 281.478 55.1465 281.427C59.3015 280.657 62.636 278.862 64.842 276.246C65.8165 275.117 67.4064 272.86 67.2529 271.731C66.1754 272.655 64.9955 273.424 64.4315 273.014C64.226 272.911 64.1235 272.655 64.0725 272.347C64.021 271.885 64.1234 271.372 64.3799 271.065C64.6879 270.654 65.3034 270.449 65.9704 270.449C66.5344 270.449 67.0474 270.654 67.3554 270.911C67.7659 270.552 68.176 270.141 68.5865 269.679C70.3305 267.833 74.9474 262.959 73.3574 257.727C72.7929 255.829 71.5105 254.136 70.023 252.956C69.664 253.264 69.305 253.521 68.843 253.726C67.0475 254.598 64.6879 254.495 63.508 253.982C63.0975 253.777 62.8925 253.572 62.841 253.315C62.79 253.11 62.8409 252.854 62.9949 252.597C63.4054 251.93 64.5339 251.263 65.5084 251.058C66.8934 250.75 68.5353 251.315 69.9713 252.341C72.5878 249.776 72.6389 244.646 72.6389 243.979C72.5879 237.823 68.3299 233.463 66.4834 231.873C66.3809 231.77 66.3804 231.616 66.4319 231.513C66.4834 231.411 66.6885 231.411 66.791 231.462C68.689 233.104 73.1009 237.567 73.1009 243.979C73.1009 245.056 72.9979 250.032 70.3304 252.648C71.8694 253.88 73.2035 255.675 73.7675 257.624C75.4095 263.165 70.6385 268.141 68.843 270.039C68.484 270.449 68.0225 270.911 67.5605 271.321C68.176 272.757 65.8679 275.63 65.1494 276.502C62.9439 279.272 59.4554 281.119 55.1975 281.94ZM65.8678 271.013C65.3548 271.013 64.9444 271.167 64.7389 271.424C64.5854 271.629 64.4823 271.988 64.5338 272.296C64.5338 272.45 64.6365 272.552 64.688 272.604C64.9955 272.809 65.8679 272.244 66.9964 271.321C66.7399 271.116 66.3809 271.013 65.9704 271.013C65.8679 271.013 65.8678 271.013 65.8678 271.013ZM66.3294 251.571C66.0729 251.571 65.868 251.571 65.6115 251.622C64.6365 251.828 63.7129 252.443 63.4054 252.956C63.3029 253.059 63.303 253.213 63.303 253.264C63.303 253.367 63.4565 253.469 63.713 253.623C64.6365 254.085 66.8935 254.239 68.638 253.418C68.997 253.264 69.305 253.059 69.6125 252.802C68.5355 251.982 67.3554 251.571 66.3294 251.571Z" fill="#3913B8"/>
<path d="M107.455 281.94C107.403 281.94 107.403 281.94 107.455 281.94C103.146 281.119 99.7089 279.272 97.4514 276.605C96.6819 275.733 94.4249 272.86 95.0404 271.424C94.5789 270.962 94.1174 270.5 93.7579 270.141C91.9624 268.243 87.1919 263.216 88.8334 257.727C89.3979 255.778 90.7314 253.982 92.2704 252.751C89.6544 250.084 89.5004 245.159 89.5004 244.082C89.5514 237.721 93.9119 233.206 95.8099 231.565C95.9124 231.462 96.0664 231.462 96.1689 231.616C96.2719 231.77 96.2719 231.873 96.1179 231.975C94.2709 233.566 90.0134 237.926 89.9619 244.082C89.9619 244.749 90.0134 249.878 92.6294 252.443C94.0659 251.417 95.7074 250.904 97.0924 251.161C98.1184 251.366 99.1959 252.033 99.6059 252.7C99.7599 252.956 99.8114 253.213 99.7599 253.418C99.7089 253.675 99.4524 253.931 99.0929 254.085C97.9134 254.649 95.5024 254.701 93.7579 253.828C93.3479 253.623 92.9374 253.367 92.5784 253.059C91.0904 254.239 89.8079 255.932 89.2439 257.83C87.7049 263.062 92.2704 267.936 94.0144 269.782C94.4249 270.244 94.8354 270.654 95.2459 271.013C95.5534 270.706 96.0664 270.552 96.6309 270.552C97.2979 270.552 97.9134 270.757 98.2209 271.167C98.4774 271.526 98.5799 271.988 98.5289 272.45C98.4774 272.758 98.3234 272.963 98.1699 273.117C97.5544 273.527 96.4254 272.758 95.3484 271.834C95.1429 272.911 96.7849 275.169 97.7594 276.348C99.9654 278.913 103.299 280.709 107.455 281.53C107.609 281.581 107.66 281.683 107.66 281.837C107.66 281.889 107.557 281.94 107.455 281.94ZM95.7074 271.321C96.8359 272.296 97.7079 272.809 98.0159 272.604C98.0674 272.552 98.1184 272.45 98.1699 272.296C98.2209 271.988 98.1184 271.629 97.9644 271.424C97.7594 271.167 97.2979 270.962 96.7849 271.013C96.3229 271.013 95.9124 271.116 95.7074 271.321ZM93.0399 252.751C93.3479 253.008 93.6554 253.213 94.0144 253.367C95.7589 254.188 97.9644 254.034 98.9394 253.572C99.1959 253.469 99.3494 253.315 99.3494 253.213C99.3494 253.162 99.3494 253.008 99.2469 252.905C98.9394 252.443 98.0159 251.776 97.0414 251.571C95.7589 251.366 94.3224 251.828 93.0399 252.751Z" fill="#3913B8"/>
<path d="M48.6884 222.588C48.6371 222.588 48.5345 222.588 48.4832 222.536C48.3806 222.434 48.3806 222.28 48.4832 222.177L55.3059 215.355C55.4084 215.252 55.5624 215.252 55.6649 215.355C55.7674 215.457 55.7674 215.611 55.6649 215.714L48.8423 222.536C48.8423 222.588 48.7397 222.588 48.6884 222.588Z" fill="#3913B8"/>
<path d="M96.8068 233.001C96.7553 233.001 96.6528 233.001 96.6013 232.949C96.4988 232.847 96.4988 232.693 96.6013 232.59L103.425 225.768C103.527 225.665 103.681 225.665 103.784 225.768C103.886 225.87 103.886 226.024 103.784 226.127L96.9603 232.898C96.9093 232.949 96.8578 233.001 96.8068 233.001Z" fill="#3913B8"/>
<path d="M92.2921 233.001C92.2411 233.001 92.1386 233.001 92.0871 232.949C91.9846 232.847 91.9846 232.693 92.0871 232.59L98.9096 225.768C99.0121 225.665 99.1661 225.665 99.2686 225.768C99.3716 225.87 99.3716 226.024 99.2686 226.127L92.4461 232.949C92.4461 232.949 92.3946 233.001 92.2921 233.001Z" fill="#3913B8"/>
<path d="M83.3648 233.001C83.3133 233.001 83.2108 233.001 83.1598 232.949C83.0568 232.847 83.0568 232.693 83.1598 232.59L89.9823 225.768C90.0848 225.665 90.2388 225.665 90.3413 225.768C90.4438 225.87 90.4438 226.024 90.3413 226.127L83.5188 232.949C83.4673 232.949 83.4163 233.001 83.3648 233.001Z" fill="#3913B8"/>
<path d="M78.8526 233.001C78.8011 233.001 78.6986 233.001 78.6476 232.949C78.5446 232.847 78.5446 232.693 78.6476 232.59L85.4701 225.768C85.5726 225.665 85.7266 225.665 85.8291 225.768C85.9316 225.87 85.9316 226.024 85.8291 226.127L79.0066 232.949C79.0066 232.949 78.9036 233.001 78.8526 233.001Z" fill="#3913B8"/>
<path d="M74.3878 233.001C74.3363 233.001 74.2338 233.001 74.1823 232.949C74.0798 232.847 74.0798 232.693 74.1823 232.59L81.0053 225.768C81.1078 225.665 81.2618 225.665 81.3643 225.768C81.4668 225.87 81.4668 226.024 81.3643 226.127L74.5413 232.949C74.4903 232.949 74.4388 233.001 74.3878 233.001Z" fill="#3913B8"/>
<path d="M69.9249 233.001C69.8739 233.001 69.7714 233.001 69.7199 232.949C69.6174 232.847 69.6174 232.693 69.7199 232.59L76.5424 225.768C76.6454 225.665 76.7989 225.665 76.9019 225.768C77.0044 225.87 77.0044 226.024 76.9019 226.127L70.0789 232.949C70.0279 232.949 69.9764 233.001 69.9249 233.001Z" fill="#3913B8"/>
<path d="M65.4103 233.001C65.3593 233.001 65.2563 233.001 65.2053 232.949C65.1028 232.847 65.1028 232.693 65.2053 232.59L72.0278 225.768C72.1303 225.665 72.2843 225.665 72.3868 225.768C72.4893 225.87 72.4893 226.024 72.3868 226.127L65.5643 232.949C65.5643 232.949 65.4618 233.001 65.4103 233.001Z" fill="#3913B8"/>
<path d="M60.9478 233.001C60.8963 233.001 60.7938 233.001 60.7428 232.949C60.6398 232.847 60.6398 232.693 60.7428 232.59L67.5653 225.768C67.6678 225.665 67.8218 225.665 67.9243 225.768C68.0268 225.87 68.0268 226.024 67.9243 226.127L61.1018 232.949C61.0503 232.949 60.9993 233.001 60.9478 233.001Z" fill="#3913B8"/>
<path d="M56.4337 233.001C56.3822 233.001 56.2797 233.001 56.2282 232.949C56.1257 232.847 56.1257 232.693 56.2282 232.59L63.0512 225.768C63.1537 225.665 63.3077 225.665 63.4102 225.768C63.5127 225.87 63.5127 226.024 63.4102 226.127L56.5877 232.949C56.5877 232.949 56.5362 233.001 56.4337 233.001Z" fill="#3913B8"/>
<path d="M51.9709 233.001C51.9194 233.001 51.8169 233.001 51.7654 232.949C51.6629 232.847 51.6629 232.693 51.7654 232.59L58.5884 225.768C58.6909 225.665 58.8449 225.665 58.9474 225.768C59.0499 225.87 59.0499 226.024 58.9474 226.127L52.1249 232.949C52.1249 232.949 52.0219 233.001 51.9709 233.001Z" fill="#3913B8"/>
<path d="M49.4057 225.101C49.3544 225.101 49.2518 225.101 49.2005 225.049C49.0979 224.947 49.0979 224.793 49.2005 224.69L56.0233 217.868C56.1258 217.765 56.2798 217.765 56.3823 217.868C56.4848 217.97 56.4848 218.124 56.3823 218.227L49.5596 225.049C49.5083 225.101 49.457 225.101 49.4057 225.101Z" fill="#3913B8"/>
<path d="M48.6884 229.257C48.6371 229.257 48.5345 229.257 48.4832 229.205C48.3806 229.103 48.3806 228.949 48.4832 228.846L55.3059 222.023C55.4084 221.921 55.5624 221.921 55.6649 222.023C55.7674 222.126 55.7674 222.28 55.6649 222.383L48.8423 229.205C48.8423 229.205 48.7397 229.257 48.6884 229.257Z" fill="#3913B8"/>
<path d="M49.4057 231.77C49.3544 231.77 49.2518 231.77 49.2005 231.718C49.0979 231.616 49.0979 231.462 49.2005 231.359L56.0233 224.537C56.1258 224.434 56.2798 224.434 56.3823 224.537C56.4848 224.639 56.4848 224.793 56.3823 224.896L49.5596 231.718C49.5083 231.718 49.457 231.77 49.4057 231.77Z" fill="#3913B8"/>
<path d="M87.902 232.911C87.851 232.911 87.748 232.911 87.697 232.86C87.5945 232.757 87.5945 232.604 87.697 232.501L94.5195 225.678C94.622 225.576 94.776 225.576 94.8785 225.678C94.9815 225.781 94.9815 225.935 94.8785 226.037L88.056 232.86C88.0045 232.86 87.9535 232.911 87.902 232.911Z" fill="#3913B8"/>
<path d="M33.3522 132.457C33.2497 132.457 33.1471 132.405 33.1471 132.303C33.0958 132.2 33.1471 132.046 33.2496 131.944L48.9983 124.249C49.1009 124.198 49.2548 124.249 49.3574 124.351C49.4087 124.454 49.3574 124.608 49.2548 124.711L33.5061 132.405C33.4035 132.405 33.4035 132.457 33.3522 132.457Z" fill="#3913B8"/>
<path d="M43.3026 116.246C43.2 116.246 43.0974 116.195 43.0461 116.092C41.2507 112.142 39.25 108.243 37.1468 104.447C35.813 102.036 33.0429 100.703 30.2728 101.216C30.2215 101.216 30.1702 101.216 30.1189 101.267C27.9644 101.626 26.2202 103.011 25.2968 104.96C24.3735 106.961 24.4761 109.167 25.6046 111.065C25.6559 111.167 25.6559 111.321 25.502 111.424C25.3994 111.475 25.2456 111.475 25.143 111.321C23.9631 109.269 23.8092 106.858 24.8352 104.755C25.8098 102.601 27.7079 101.164 30.0676 100.754C30.1189 100.754 30.1702 100.754 30.2215 100.754C33.1968 100.241 36.1721 101.677 37.6085 104.242C39.7117 108.038 41.7123 111.937 43.5078 115.887C43.5591 116.041 43.5078 116.143 43.4052 116.246C43.4052 116.246 43.3539 116.246 43.3026 116.246Z" fill="#3913B8"/>
<path d="M152.413 121.837C152.413 121.837 163.237 114.04 166.469 112.244C169.752 110.5 178.062 109.833 184.064 111.68C185.193 112.039 180.73 114.604 179.55 114.758C179.55 114.758 198.223 114.142 198.069 116.194C197.966 118.246 194.58 119.529 189.707 120.196C184.834 120.862 172.881 122.607 166.725 121.837C163.134 125.12 155.081 134.354 155.081 134.354L148.873 125.633L152.413 121.837Z" fill="#F8BCBF"/>
<path d="M117.992 161.286C117.992 161.286 131.996 154.617 136.664 155.899C138.614 156.412 141.743 157.079 144.564 158.977C148.463 161.594 149.027 165.133 147.335 166.005C146.001 166.672 139.435 164.825 139.435 164.825C139.435 164.825 136.613 166.21 134.305 168.057C132.561 169.442 123.635 170.16 123.635 170.16C114.452 161.234 117.992 161.286 117.992 161.286Z" fill="#F8BCBF"/>
<path d="M130.971 148.923C129.432 148.923 127.893 148.666 126.405 148.153L90.7531 136.098C85.9306 134.508 92.1381 131.789 93.7281 126.967C95.3186 122.145 86.0847 112.655 90.9067 114.245L130.098 129.994L152.67 117.272C156.774 114.296 167.649 129.122 163.545 132.097L139.127 146.153C136.767 147.999 133.895 148.923 130.971 148.923Z" fill="#3913B8"/>
<path d="M110.402 73.411C111.171 72.9495 116.506 68.435 115.891 66.7935C115.48 65.665 113.018 66.0755 112.608 64.793C112.3 63.8695 113.429 62.895 114.147 61.8175C116.353 58.74 115.019 51.404 112.043 50.532C100.963 47.3002 92.7548 61.048 92.7548 61.048C93.7808 59.0475 93.7808 57.047 92.7548 56.0725C91.4213 54.79 88.7023 55.9185 88.3433 56.0725C83.5213 58.073 82.5978 64.588 80.9563 64.3315C79.9303 64.126 80.2378 61.664 78.6993 61.048C77.3138 60.484 74.9543 61.6125 74.2873 63.3055C73.2613 65.9215 76.7498 68.6915 75.8263 70.128C75.3648 70.846 73.8258 71.2055 69.5678 69.974C67.3623 79.1565 71.4658 87.826 72.6458 91.058C73.6203 93.879 75.0058 97.7265 78.0323 98.291C80.2378 98.7015 83.1618 97.316 83.9828 95.1615C85.1628 92.135 81.4178 89.724 81.7258 84.6455C81.8283 82.4395 82.9568 82.286 83.5723 81.26C90.6003 80.6955 105.529 76.489 110.402 73.411Z" fill="#3913B8"/>
<path d="M77.9802 116.604C77.9802 116.604 83.4692 98.7014 83.6742 92.1864C83.6742 92.1864 76.2361 94.4949 76.9026 89.8779C77.5696 85.2099 83.6742 86.3384 83.6742 86.3384C83.4177 84.0809 83.9307 81.8754 85.2132 79.7209C85.2132 79.7209 96.0372 79.2589 108.708 74.2319L111.324 93.0069L108.246 93.6224C108.246 93.6224 105.784 106.293 104.45 106.755C103.116 107.217 95.1137 107.37 95.1137 107.37L94.4467 126.864C94.3957 126.864 80.3397 124.196 77.9802 116.604Z" fill="#F8BCBF"/>
<path d="M79.469 109.269C76.2885 113.322 44.5347 135.226 63.3614 188.628H104.862C104.862 188.628 107.683 150.564 106.452 144.049C105.682 139.843 105.631 122.709 105.477 121.683C105.272 120.298 95.9869 116.553 94.7559 117.99L94.4994 122.812C85.9839 119.477 79.9305 108.756 79.469 109.269Z" fill="#3913B8"/>
<path d="M88.0367 185.038C87.8317 185.038 87.6262 185.038 87.4212 185.038C84.9077 184.935 80.2907 183.755 77.9822 176.984C77.5207 175.548 77.0077 173.649 76.4947 171.238C75.7252 167.596 74.8017 162.569 73.8272 156.311C72.1857 145.846 70.9032 135.586 70.8517 135.176C70.2362 130.148 73.7757 125.532 78.8032 124.916C83.8302 124.3 88.4472 127.84 89.0627 132.867C90.3967 143.537 92.6537 158.876 94.0902 166.724C100.399 163.851 110.197 160.979 118.097 157.029C122.663 154.772 130.819 171.238 126.254 173.496C96.0907 188.526 90.4992 185.038 88.0367 185.038Z" fill="#3913B8"/>
<path d="M88.0367 185.038C87.8317 185.038 87.6262 185.038 87.4212 185.038C84.9077 184.935 80.2907 183.755 77.9822 176.984C77.5207 175.548 77.0077 173.649 76.4947 171.238C75.7252 167.596 74.8017 162.569 73.8272 156.311C72.1857 145.846 70.9032 135.586 70.8517 135.176C70.2362 130.148 73.7757 125.532 78.8032 124.916C83.8302 124.3 88.4472 127.84 89.0627 132.867C90.3967 143.537 92.6537 158.876 94.0902 166.724C100.399 163.851 110.197 160.979 118.097 157.029C122.663 154.772 130.819 171.238 126.254 173.496C96.0907 188.526 90.4992 185.038 88.0367 185.038Z" fill="black" fill-opacity="0.28"/>
<path d="M94.0878 170.827C93.9338 170.827 93.8313 170.673 93.8313 170.519C94.3443 166.518 88.9578 133.123 87.0598 128.455C86.1878 126.3 82.0838 126.146 78.8008 126.351C75.1588 126.608 71.7218 127.429 71.6703 127.429C71.5163 127.48 71.4138 127.377 71.3623 127.223C71.3113 127.07 71.4138 126.967 71.5678 126.916C72.1318 126.762 85.6748 123.633 87.5728 128.249C89.3168 132.558 94.9598 165.902 94.3443 170.571C94.3443 170.776 94.1903 170.827 94.0878 170.827Z" fill="#060606"/>
<path d="M90.9082 169.083C90.8057 169.083 90.7547 169.032 90.7032 168.981C90.6517 168.878 90.6517 168.724 90.8057 168.622C90.8572 168.57 98.6032 163.953 114.301 158.157C114.454 158.105 114.557 158.157 114.608 158.311C114.66 158.464 114.608 158.567 114.454 158.618C98.8082 164.415 91.1647 169.032 91.0622 169.083C91.0112 169.032 90.9597 169.083 90.9082 169.083Z" fill="#060606"/>
<path d="M87.2147 186.32C82.1362 186.32 77.7757 178.574 74.2877 163.338C71.6712 151.899 70.4912 140.254 70.4912 140.1C70.4912 139.946 70.5942 139.844 70.6967 139.844C70.8507 139.844 70.9532 139.946 70.9532 140.049C71.0042 140.51 75.5702 186.32 87.3172 185.807C101.732 185.14 123.739 172.726 123.995 172.572C124.098 172.521 124.252 172.521 124.354 172.675C124.457 172.828 124.406 172.931 124.252 173.034C124.047 173.136 101.886 185.653 87.3687 186.32C87.3687 186.32 87.2662 186.32 87.2147 186.32Z" fill="#060606"/>
<path d="M101.835 148.462L101.322 147.333C100.963 146.564 100.399 145.333 99.8853 145.281C99.6288 145.281 99.3723 145.589 99.0648 146.153L98.7568 146.82L98.6028 146.102C98.3463 144.922 98.3978 143.742 98.3978 142.614C98.3978 142.306 98.3978 141.998 98.3978 141.69C98.3978 141.536 98.5003 141.434 98.6543 141.434C98.8083 141.434 98.9108 141.536 98.9108 141.69C98.9108 141.998 98.9108 142.306 98.9108 142.614C98.9108 143.537 98.9108 144.46 99.0133 145.333C99.3213 144.973 99.5778 144.768 99.9368 144.82C100.604 144.82 101.117 145.64 101.527 146.461C101.63 145.948 101.835 145.589 102.092 145.384C102.553 145.025 103.169 145.23 103.733 145.384C104.503 145.64 104.964 145.743 105.272 145.179C105.324 145.076 105.477 145.025 105.631 145.076C105.734 145.127 105.785 145.281 105.734 145.435C105.221 146.41 104.298 146.102 103.579 145.897C103.118 145.743 102.656 145.589 102.348 145.794C102.092 145.999 101.938 146.512 101.887 147.384L101.835 148.462Z" fill="#B5CDFB"/>
<path d="M68.6434 169.135C68.5409 169.135 68.3869 169.032 68.3869 168.93C68.2329 168.006 67.6174 167.031 67.0529 166.159C66.7964 165.749 66.5404 165.39 66.3349 165.031C66.2839 164.928 66.3349 164.774 66.4374 164.672C66.5404 164.62 66.6939 164.672 66.7964 164.774C67.0019 165.133 67.2069 165.493 67.4634 165.852C68.0789 166.775 68.7459 167.801 68.8999 168.827C68.9514 168.981 68.8484 169.135 68.6434 169.135C68.6949 169.135 68.6949 169.135 68.6434 169.135Z" fill="#9F8AFF"/>
<path d="M71.8253 167.545C71.7228 167.545 71.5688 167.442 71.5688 167.339C71.4148 165.954 70.6453 164.569 69.4143 163.338C69.3118 163.236 69.3118 163.082 69.4143 162.979C69.5168 162.876 69.6708 162.876 69.7733 162.979C71.0558 164.262 71.8763 165.8 72.0818 167.288C72.1328 167.391 72.0303 167.545 71.8253 167.545C71.8763 167.545 71.8763 167.545 71.8253 167.545Z" fill="#9F8AFF"/>
<path d="M103.889 98.394C103.889 98.394 102.607 102.447 99.9391 102.242C98.0411 102.088 97.5796 98.8555 97.4771 98.753L103.889 98.394Z" fill="white"/>
<path d="M98.6041 89.5188C99.1711 89.5188 99.6301 89.0598 99.6301 88.4933C99.6301 87.9263 99.1711 87.4673 98.6041 87.4673C98.0376 87.4673 97.5781 87.9263 97.5781 88.4933C97.5781 89.0598 98.0376 89.5188 98.6041 89.5188Z" fill="#464646"/>
<path d="M109.378 86.7488C109.944 86.7488 110.404 86.2898 110.404 85.7228C110.404 85.1563 109.944 84.6973 109.378 84.6973C108.811 84.6973 108.352 85.1563 108.352 85.7228C108.352 86.2898 108.811 86.7488 109.378 86.7488Z" fill="#464646"/>
<path d="M94.8067 87.262C94.6527 87.262 94.4987 87.211 94.3962 87.057C94.1912 86.8515 94.2422 86.4925 94.4477 86.3385L99.7312 81.8755C99.9362 81.6705 100.296 81.722 100.449 81.927C100.655 82.132 100.603 82.4915 100.398 82.645L95.1142 87.108C95.0632 87.211 94.9607 87.262 94.8067 87.262Z" fill="#464646"/>
<path d="M113.275 84.6975C113.224 84.6975 113.172 84.6975 113.121 84.6975L107.427 83.056C107.17 82.953 107.016 82.6965 107.068 82.44C107.17 82.1835 107.427 82.03 107.683 82.081L113.377 83.7225C113.634 83.8255 113.788 84.082 113.736 84.338C113.685 84.5435 113.48 84.6975 113.275 84.6975Z" fill="#464646"/>
<path d="M93.8318 85.0051C93.5753 85.0051 93.3188 84.8001 93.3188 84.5436C93.3188 84.2356 93.5243 84.0306 93.7808 83.9791L99.5773 83.6201C99.8338 83.6201 100.091 83.8256 100.142 84.0821C100.142 84.3896 99.9363 84.5951 99.6798 84.6461L93.8318 85.0051C93.8833 85.0051 93.8833 85.0051 93.8318 85.0051Z" fill="#464646"/>
<path d="M104.76 94.8031C104.657 94.8031 104.555 94.7006 104.503 94.5976C104.452 94.4441 104.555 94.3411 104.708 94.2901L110.403 93.1101C110.556 93.0586 110.659 93.1616 110.71 93.3151C110.762 93.4691 110.659 93.5716 110.505 93.6231L104.811 94.8031C104.76 94.8031 104.76 94.8031 104.76 94.8031Z" fill="#464646"/>
<path d="M80.4963 90.4423C80.4453 90.4423 80.3938 90.4423 80.3423 90.3908C80.2398 90.2883 80.1888 90.1343 80.2913 90.0318C80.3423 89.9803 81.1118 88.9549 82.9073 89.3139C83.0613 89.3649 83.1128 89.4679 83.1128 89.6214C83.0613 89.7753 82.9588 89.8269 82.8048 89.8269C81.3683 89.5189 80.7528 90.2883 80.7528 90.3398C80.6503 90.4423 80.5478 90.4423 80.4963 90.4423Z" fill="#464646"/>
<path d="M82.2915 91.315C82.1375 91.315 82.0351 91.161 82.0351 91.007C82.0861 90.443 81.009 89.417 80.2905 88.904C80.188 88.801 80.137 88.6475 80.2395 88.5445C80.342 88.442 80.496 88.391 80.5985 88.4935C80.8036 88.6475 82.6505 90.0325 82.548 91.0585C82.548 91.212 82.445 91.315 82.2915 91.315Z" fill="#464646"/>
<path d="M89.2663 77.8232L87.2658 88.2882C87.2658 88.2882 82.5463 86.3902 80.4943 86.2362C77.1598 83.9792 83.5723 76.2842 83.5723 76.2842L89.2663 77.8232Z" fill="#3913B8"/>
<path d="M104.963 68.4875L104.502 68.282C104.861 67.5125 105.63 67.102 106.297 66.743C106.502 66.6405 106.759 66.4865 106.964 66.384C109.683 64.5885 113.222 62.075 116.198 58.8945C118.352 56.6375 120.199 54.2265 119.532 50.1225C119.429 49.5581 119.173 49.2503 118.66 49.0964C116.3 48.4296 110.247 52.072 108.554 54.021L108.144 53.7135C109.939 51.61 116.095 47.8653 118.763 48.6348C119.481 48.84 119.891 49.3529 120.045 50.071C120.763 54.38 118.814 56.894 116.608 59.2535C113.581 62.4855 110.042 64.999 107.272 66.8455C107.067 66.9995 106.81 67.102 106.605 67.256C105.938 67.5125 105.271 67.8715 104.963 68.4875Z" fill="#9F8AFF"/>
<path d="M146.719 160.311C146.719 160.311 146.668 160.311 146.719 160.311C146.206 160.157 145.437 159.901 144.513 159.593C142.564 158.875 139.845 157.9 138.563 157.9C138.46 157.9 138.358 157.797 138.358 157.695C138.358 157.592 138.46 157.489 138.563 157.489C139.948 157.489 142.564 158.413 144.667 159.182C145.539 159.49 146.309 159.798 146.771 159.901C146.873 159.952 146.924 160.054 146.924 160.157C146.873 160.26 146.822 160.311 146.719 160.311Z" fill="#3913B8"/>
<path d="M148.977 163.748C148.926 163.748 148.926 163.748 148.977 163.748C148.464 163.594 147.797 163.338 147.027 163.03C145.232 162.312 142.718 161.286 140.82 161.286C140.718 161.286 140.615 161.183 140.615 161.08C140.615 160.978 140.718 160.875 140.82 160.875C142.821 160.875 145.334 161.901 147.181 162.619C147.951 162.927 148.566 163.184 149.028 163.286C149.131 163.338 149.182 163.44 149.182 163.543C149.131 163.697 149.028 163.748 148.977 163.748Z" fill="#3913B8"/>
<path d="M108.196 189.654C108.196 189.654 153.236 186.781 155.647 192.321C158.058 197.862 158.072 252.402 158.072 252.402L145.031 256.085L139.744 201.299L108.196 189.654Z" fill="#9F8AFF"/>
<path d="M108.196 189.654C108.196 189.654 153.236 186.781 155.647 192.321C158.058 197.862 158.072 252.402 158.072 252.402L145.031 256.085L139.744 201.299L108.196 189.654Z" fill="white" fill-opacity="0.43"/>
<path d="M158.057 251.981C158.057 251.981 158.057 254.136 158.057 255.008C158.057 257.009 158.057 258.137 158.057 258.137L144.771 256.839L144.514 251.827L158.057 251.981Z" fill="#F9C5C8"/>
<path d="M158.058 256.034V264.344L172.575 270.654C173.806 271.167 173.396 272.962 172.113 272.962L145.746 272.809L144.771 256.137L158.058 256.034Z" fill="#F2F1F8"/>
<path d="M178.217 279.067H136.563C135.691 279.067 135.024 278.4 135.024 277.528C135.024 276.656 135.691 275.989 136.563 275.989H178.217C179.089 275.989 179.756 276.656 179.756 277.528C179.756 278.4 179.038 279.067 178.217 279.067Z" fill="#3913B8"/>
<path d="M152.415 276.502L161.494 265.165C161.494 265.165 174.165 269.987 178.012 272.963C179.962 274.502 178.782 277.631 176.32 277.528L152.415 276.502Z" fill="#3913B8"/>
<path fill-rule="evenodd" clip-rule="evenodd" d="M178.73 276.071C179.338 276.275 179.756 276.837 179.756 277.528C179.756 278.4 179.038 279.067 178.217 279.067H136.563C135.691 279.067 135.024 278.4 135.024 277.528C135.024 276.656 135.691 275.989 136.563 275.989H152.824L161.493 265.165C161.493 265.165 174.164 269.987 178.011 272.963C179.058 273.789 179.202 275.074 178.73 276.071Z" fill="white" fill-opacity="0.19"/>
<path d="M63.3608 188.627V199.246C63.3608 205.402 68.3883 210.429 74.5443 210.429H122.406C124.971 210.429 127.023 212.481 127.023 215.046V276.194C127.023 277.886 128.357 279.22 130.049 279.22H164.009C165.291 279.22 170.165 277.579 169.139 276.809L145.182 264.19L144.054 204.017C143.951 197.348 138.821 191.859 132.204 191.243L104.862 188.678H63.3608V188.627Z" fill="#9F8AFF"/>
<path d="M145.183 256.034H127.023V259.009H145.183V256.034Z" fill="#F8B8BB"/>
<path d="M127.023 259.009V276.194C127.023 277.887 128.357 279.221 130.05 279.221H164.009C165.292 279.221 170.165 277.579 169.139 276.81L145.183 264.19V259.009H127.023Z" fill="white"/>
<path d="M145.183 256.29H127.023C126.869 256.29 126.766 256.187 126.766 256.034C126.766 255.88 126.869 255.777 127.023 255.777H145.183C145.337 255.777 145.439 255.88 145.439 256.034C145.439 256.187 145.337 256.29 145.183 256.29Z" fill="#3913B8"/>
<path d="M145.183 259.522H127.023C126.869 259.522 126.766 259.419 126.766 259.266C126.766 259.112 126.869 259.009 127.023 259.009H145.183C145.337 259.009 145.439 259.112 145.439 259.266C145.439 259.419 145.337 259.522 145.183 259.522Z" fill="#3913B8"/>
<path d="M158.11 252.135H145.183C145.029 252.135 144.926 252.033 144.926 251.879C144.926 251.725 145.029 251.622 145.183 251.622H158.058C158.212 251.622 158.315 251.725 158.315 251.879C158.315 252.033 158.212 252.135 158.11 252.135Z" fill="#3913B8"/>
<path d="M158.11 256.29H145.183C145.029 256.29 144.926 256.187 144.926 256.034C144.926 255.88 145.029 255.777 145.183 255.777H158.058C158.212 255.777 158.315 255.88 158.315 256.034C158.315 256.187 158.212 256.29 158.11 256.29Z" fill="#3913B8"/>
<path d="M169.293 281.836H127.639C126.767 281.836 126.1 281.17 126.1 280.297C126.1 279.425 126.767 278.759 127.639 278.759H169.293C170.165 278.759 170.832 279.425 170.832 280.297C170.832 281.17 170.114 281.836 169.293 281.836Z" fill="#3913B8"/>
<path d="M143.542 279.272L152.621 267.935C152.621 267.935 165.292 272.757 169.139 275.732C171.089 277.271 169.909 280.4 167.447 280.298L143.542 279.272Z" fill="#3913B8"/>
<path d="M82.8035 201.606C82.4955 201.606 82.188 201.555 81.88 201.503C79.674 201.042 79.777 198.323 79.828 196.322C79.828 196.015 79.828 195.707 79.828 195.45C79.828 195.296 79.9305 195.194 80.0845 195.194C80.2385 195.194 80.341 195.296 80.341 195.45C80.341 195.707 80.341 196.015 80.341 196.322C80.29 198.22 80.2385 200.631 81.9825 200.99C83.06 201.247 84.137 200.99 85.163 200.272C87.8305 198.477 89.3695 194.424 89.472 193.706C89.472 193.552 89.626 193.45 89.78 193.501C89.934 193.501 90.0365 193.655 89.985 193.809C89.78 194.886 88.087 198.939 85.471 200.734C84.599 201.35 83.727 201.606 82.8035 201.606Z" fill="#3913B8"/>
<path d="M134.871 245.98C134.717 245.98 134.614 245.877 134.614 245.723V209.66C134.614 205.71 131.434 202.53 127.484 202.53L88.7536 201.401C88.5996 201.401 88.4971 201.299 88.4971 201.145C88.4971 200.991 88.6506 200.888 88.7536 200.888L127.484 202.017C131.69 202.017 135.127 205.454 135.127 209.66V245.723C135.127 245.826 135.025 245.98 134.871 245.98Z" fill="#3913B8"/>
<path d="M131.177 268.089C131.074 268.089 130.972 268.037 130.92 267.935C130.869 267.781 130.92 267.678 131.074 267.627C131.485 267.473 132.306 267.217 132.972 267.422C133.126 267.473 133.178 267.627 133.126 267.73C133.075 267.884 132.921 267.935 132.819 267.884C132.459 267.781 131.895 267.832 131.28 268.089C131.228 268.089 131.177 268.089 131.177 268.089Z" fill="#3913B8"/>
<path d="M131.844 269.987C131.741 269.987 131.639 269.936 131.587 269.833C131.536 269.731 131.587 269.576 131.69 269.474L131.844 269.422C132.254 269.217 132.562 269.063 133.075 269.115C133.229 269.115 133.332 269.217 133.332 269.371C133.332 269.525 133.178 269.628 133.075 269.628C132.665 269.628 132.408 269.73 132.049 269.884L131.895 269.935C131.946 269.987 131.895 269.987 131.844 269.987Z" fill="#3913B8"/>
<path d="M142.616 265.062C142.513 265.062 142.41 265.01 142.359 264.908C142.308 264.754 142.359 264.651 142.513 264.549C142.616 264.497 142.718 264.446 142.821 264.395C143.026 264.292 143.231 264.19 143.539 264.087C143.744 264.036 143.949 264.036 144.155 264.036C144.462 264.036 144.719 264.036 144.924 263.882C145.027 263.779 145.18 263.831 145.283 263.933C145.386 264.036 145.334 264.19 145.232 264.292C144.873 264.549 144.462 264.549 144.155 264.549C144.001 264.549 143.795 264.549 143.642 264.6C143.436 264.651 143.282 264.754 143.077 264.857C142.975 264.908 142.872 264.959 142.718 265.01C142.667 265.062 142.616 265.062 142.616 265.062Z" fill="#3913B8"/>
<path d="M153.494 263.677C153.391 263.677 153.288 263.625 153.288 263.523C153.237 263.42 153.288 263.266 153.391 263.164C153.494 263.113 153.596 263.061 153.699 262.959C153.955 262.753 154.263 262.548 154.622 262.6C154.776 262.651 154.827 262.753 154.827 262.907C154.776 263.061 154.673 263.113 154.519 263.113C154.417 263.061 154.212 263.215 154.007 263.369C153.904 263.472 153.75 263.574 153.647 263.625C153.596 263.677 153.545 263.677 153.494 263.677Z" fill="#3913B8"/>
<path d="M153.799 264.806C153.748 264.806 153.696 264.806 153.645 264.755C153.542 264.652 153.491 264.498 153.594 264.396C153.799 264.088 154.261 263.729 154.62 263.575C154.774 263.524 154.876 263.626 154.928 263.729C154.979 263.883 154.876 263.985 154.774 264.037C154.517 264.139 154.158 264.447 154.004 264.652C154.004 264.755 153.902 264.806 153.799 264.806Z" fill="#3913B8"/>
<path d="M106.091 141.126C106.091 141.126 105.681 132.405 103.988 129.994C103.988 129.994 112.452 141.793 112.452 143.178L106.091 141.126Z" fill="black" fill-opacity="0.81"/>
<path d="M173.857 138.099C173.652 138.099 173.446 138.047 173.241 137.996C172.113 137.637 171.394 136.149 171.446 134.969C171.446 133.533 172.523 132.507 173.036 132.045C174.575 130.609 176.935 129.583 179.397 129.378C179.602 126.505 179.602 122.042 179.653 117.117C179.705 107.935 179.756 97.5728 180.885 92.8018L181.398 92.9048C180.269 97.5728 180.218 107.935 180.166 117.117C180.115 121.991 180.115 126.402 179.91 129.326C181.398 129.275 182.885 129.583 184.27 130.301C184.424 130.404 184.629 130.506 184.783 130.609C185.604 129.121 186.733 128.095 187.246 127.582C192.273 122.863 200.84 123.53 203.353 123.838L203.302 124.351C200.84 124.043 192.478 123.427 187.656 127.941C187.143 128.403 186.066 129.429 185.296 130.865C186.887 131.943 188.22 133.584 188.631 134.918C188.785 135.482 188.785 135.944 188.579 136.252C188.374 136.611 187.912 136.919 187.297 137.073C186.425 137.226 185.501 137.073 184.937 136.611C183.911 135.841 183.963 134.456 183.963 133.789C183.963 132.763 184.219 131.891 184.629 131.071C184.475 130.968 184.27 130.865 184.116 130.763C182.834 130.096 181.398 129.788 179.961 129.839C179.859 131.019 179.756 131.891 179.551 132.404C178.525 135.226 175.909 138.099 173.857 138.099ZM179.346 129.891C177.037 130.045 174.831 131.019 173.395 132.404C172.882 132.866 171.959 133.738 171.959 134.969C171.959 135.944 172.523 137.226 173.395 137.483C175.037 137.996 177.961 135.277 178.987 132.25C179.14 131.84 179.294 131.019 179.346 129.891ZM184.988 131.43C184.629 132.148 184.424 132.969 184.424 133.892C184.424 134.456 184.424 135.687 185.194 136.303C185.655 136.662 186.425 136.816 187.143 136.662C187.605 136.56 187.912 136.354 188.066 136.098C188.169 135.893 188.169 135.534 188.066 135.123C187.759 134.097 186.579 132.507 184.988 131.43Z" fill="#3913B8"/>
<path d="M181.757 100.548C177.601 100.548 174.267 97.1628 174.267 93.0588C174.267 88.9548 177.653 85.5693 181.757 85.5693C185.861 85.5693 189.246 88.9548 189.246 93.0588C189.246 97.1628 185.861 100.548 181.757 100.548ZM181.757 86.0308C177.909 86.0308 174.78 89.1598 174.78 93.0073C174.78 96.8548 177.909 99.9838 181.757 99.9838C185.604 99.9838 188.733 96.8548 188.733 93.0073C188.733 89.1598 185.604 86.0308 181.757 86.0308Z" fill="#3913B8"/>
<path d="M181.09 93.777C181.713 93.777 182.219 93.272 182.219 92.6485C182.219 92.0255 181.713 91.52 181.09 91.52C180.467 91.52 179.961 92.0255 179.961 92.6485C179.961 93.272 180.467 93.777 181.09 93.777Z" fill="#3913B8"/>
<path d="M269.841 63.6225C270.239 61.2765 269.271 59.1555 267.679 58.885C266.087 58.6145 264.473 60.2975 264.075 62.644C263.677 64.99 264.644 67.111 266.237 67.3815C267.829 67.652 269.442 65.969 269.841 63.6225Z" fill="#B5CDFB"/>
<path d="M243.162 76.6436C243.008 76.6436 242.957 76.5921 242.957 76.5411C242.239 75.7201 249.42 62.0236 249.472 61.8696C250.241 60.8951 251.318 60.1766 252.498 59.8691L268.555 55.6111C270.247 55.1496 272.043 55.5086 273.428 56.5861C274.813 57.6631 275.634 59.2536 275.634 61.0491V64.8961C275.634 67.9741 273.223 70.4366 270.145 70.4876L254.191 70.8981C245.727 75.8741 243.675 76.6436 243.162 76.6436ZM269.94 55.9706C269.529 55.9706 269.068 56.0216 268.606 56.1241L252.55 60.3821C251.472 60.6896 250.498 61.3056 249.831 62.1776C249.061 63.1521 243.675 74.3866 243.316 76.1306C244.393 75.8741 249.42 73.1041 253.832 70.4366L253.883 70.3851H253.935L269.991 69.9746C272.761 69.9236 274.967 67.6666 274.967 64.8961V61.0491C274.967 59.4586 274.249 57.9711 272.966 56.9961C272.146 56.3296 271.068 55.9706 269.94 55.9706Z" fill="#3913B8"/>
<path d="M260.704 62.5881L254.189 63.5631C253.83 63.6141 253.522 63.3576 253.522 62.9986C253.522 62.6911 253.727 62.4856 254.035 62.4346L260.55 61.4596C260.909 61.4086 261.217 61.6651 261.217 62.0241C261.166 62.2806 260.96 62.5371 260.704 62.5881Z" fill="#3913B8"/>
<path d="M260.704 65.9735L254.189 66.948C253.83 66.9995 253.522 66.743 253.522 66.384C253.522 66.076 253.727 65.871 254.035 65.8195L260.55 64.845C260.909 64.7935 261.217 65.05 261.217 65.409C261.166 65.6655 260.96 65.922 260.704 65.9735Z" fill="#3913B8"/>
</svg>
